<svg width="20" height="21" viewBox="0 0 20 21" fill="none" xmlns="http://www.w3.org/2000/svg">
<path d="M5.8 0.577148H14.2C17.4 0.577148 20 3.17715 20 6.37715V14.7771C20 16.3154 19.3889 17.7907 18.3012 18.8784C17.2135 19.9661 15.7383 20.5771 14.2 20.5771H5.8C2.6 20.5771 0 17.9771 0 14.7771V6.37715C0 4.83889 0.61107 3.36364 1.69878 2.27593C2.78649 1.18822 4.26174 0.577148 5.8 0.577148ZM5.6 2.57715C4.64522 2.57715 3.72955 2.95643 3.05442 3.63156C2.37928 4.30669 2 5.22237 2 6.17715V14.9771C2 16.9671 3.61 18.5771 5.6 18.5771H14.4C15.3548 18.5771 16.2705 18.1979 16.9456 17.5227C17.6207 16.8476 18 15.9319 18 14.9771V6.17715C18 4.18715 16.39 2.57715 14.4 2.57715H5.6ZM15.25 4.07715C15.5815 4.07715 15.8995 4.20884 16.1339 4.44326C16.3683 4.67769 16.5 4.99563 16.5 5.32715C16.5 5.65867 16.3683 5.97661 16.1339 6.21103C15.8995 6.44545 15.5815 6.57715 15.25 6.57715C14.9185 6.57715 14.6005 6.44545 14.3661 6.21103C14.1317 5.97661 14 5.65867 14 5.32715C14 4.99563 14.1317 4.67769 14.3661 4.44326C14.6005 4.20884 14.9185 4.07715 15.25 4.07715ZM10 5.57715C11.3261 5.57715 12.5979 6.10393 13.5355 7.04161C14.4732 7.9793 15 9.25107 15 10.5771C15 11.9032 14.4732 13.175 13.5355 14.1127C12.5979 15.0504 11.3261 15.5771 10 15.5771C8.67392 15.5771 7.40215 15.0504 6.46447 14.1127C5.52678 13.175 5 11.9032 5 10.5771C5 9.25107 5.52678 7.9793 6.46447 7.04161C7.40215 6.10393 8.67392 5.57715 10 5.57715ZM10 7.57715C9.20435 7.57715 8.44129 7.89322 7.87868 8.45583C7.31607 9.01844 7 9.7815 7 10.5771C7 11.3728 7.31607 12.1359 7.87868 12.6985C8.44129 13.2611 9.20435 13.5771 10 13.5771C10.7956 13.5771 11.5587 13.2611 12.1213 12.6985C12.6839 12.1359 13 11.3728 13 10.5771C13 9.7815 12.6839 9.01844 12.1213 8.45583C11.5587 7.89322 10.7956 7.57715 10 7.57715Z" fill="#1754F2"/>
</svg>
