<svg width="20" height="20" viewBox="0 0 20 20" fill="none" xmlns="http://www.w3.org/2000/svg">
<path d="M14.423 11.0868V14.6416H12.3624V11.3243C12.3624 10.4916 12.0643 9.92332 11.3182 9.92332C10.749 9.92332 10.4095 10.306 10.2605 10.6772C10.2067 10.8099 10.1922 10.9945 10.1922 11.1791V14.6416H8.13069C8.13069 14.6416 8.15858 9.02428 8.13069 8.44255H10.1922V9.32043L10.1788 9.34063H10.1922V9.32139C10.4663 8.89832 10.9547 8.29639 12.0499 8.29639C13.4057 8.29639 14.423 9.18293 14.423 11.0868ZM5.97396 5.45312C5.26916 5.45312 4.80762 5.91659 4.80762 6.52428C4.80762 7.12043 5.25569 7.59639 5.94704 7.59639H5.9605C6.67973 7.59639 7.12685 7.11947 7.12685 6.52428C7.11339 5.91659 6.67973 5.45312 5.97396 5.45312ZM4.92973 14.6416H6.99127V8.44255H4.92973V14.6416Z" fill="#ADADAD"/>
<path d="M9.61538 17.6925C11.6555 17.6925 13.6121 16.882 15.0547 15.4394C16.4973 13.9968 17.3077 12.0403 17.3077 10.0001C17.3077 7.96002 16.4973 6.00345 15.0547 4.56087C13.6121 3.11828 11.6555 2.30784 9.61538 2.30784C7.57526 2.30784 5.61869 3.11828 4.1761 4.56087C2.73351 6.00345 1.92308 7.96002 1.92308 10.0001C1.92308 12.0403 2.73351 13.9968 4.1761 15.4394C5.61869 16.882 7.57526 17.6925 9.61538 17.6925ZM9.61538 19.6155C4.30481 19.6155 0 15.3107 0 10.0001C0 4.68957 4.30481 0.384766 9.61538 0.384766C14.926 0.384766 19.2308 4.68957 19.2308 10.0001C19.2308 15.3107 14.926 19.6155 9.61538 19.6155Z" fill="#ADADAD"/>
</svg>
