<svg width="24" height="20" viewBox="0 0 24 20" fill="none" xmlns="http://www.w3.org/2000/svg">
<path d="M16.0442 2.67067C15.1673 2.67053 14.3253 3.00945 13.6995 3.6145C13.0737 4.21955 12.7141 5.04237 12.6981 5.9059L12.6658 7.69567C12.6639 7.79177 12.6414 7.88638 12.5997 7.97331C12.5581 8.06024 12.4983 8.13752 12.4242 8.20008C12.3501 8.26264 12.2634 8.30906 12.1698 8.33631C12.0762 8.36356 11.9779 8.37101 11.8812 8.35817L10.08 8.11726C7.71 7.79908 5.43923 6.72408 3.26077 4.93658C2.57077 8.69795 3.91846 11.3036 7.16423 13.3139L9.18 14.5616C9.27577 14.6209 9.35534 14.7023 9.41174 14.7989C9.46814 14.8955 9.49966 15.0042 9.50353 15.1155C9.5074 15.2269 9.48351 15.3375 9.43395 15.4376C9.38439 15.5377 9.31066 15.6244 9.21923 15.69L7.38231 17.0116C8.475 17.0786 9.5123 17.0309 10.3731 16.8627C15.8169 15.7923 19.4365 11.7582 19.4365 5.10363C19.4365 4.56045 18.2688 2.67067 16.0442 2.67067ZM10.3904 5.86385C10.4105 4.76846 10.7583 3.70325 11.3903 2.80161C12.0222 1.89996 12.9102 1.20195 13.943 0.794954C14.9758 0.387962 16.1076 0.290082 17.1966 0.513568C18.2857 0.737054 19.2836 1.27197 20.0654 2.05136C20.8858 2.04567 21.5838 2.25022 23.145 1.3184C22.7585 3.18204 22.5681 3.99113 21.7442 5.10363C21.7442 13.7877 16.3246 18.0104 10.8254 19.0911C7.05461 19.832 1.57154 18.615 0 16.9991C0.800769 16.9377 4.05461 16.5934 5.93538 15.2377C4.34423 14.2048 -1.98923 10.5343 2.17269 0.666128C4.12615 2.91272 6.10731 4.44226 8.115 5.25363C9.45115 5.7934 9.77884 5.78204 10.3915 5.86499L10.3904 5.86385Z" fill="#ADADAD"/>
</svg>
