<svg width="44" height="41" viewBox="0 0 44 41" fill="none" xmlns="http://www.w3.org/2000/svg">
<path fill-rule="evenodd" clip-rule="evenodd" d="M39.2668 15.6152C38.6887 13.5425 36.1519 13 34 13C30.134 13 27 9.86599 27 6C27 4.10625 26.3602 1.9375 24.5149 1.51172C23.064 1.17693 21.5527 1 20 1C8.95431 1 0 9.95431 0 21C0 32.0457 8.95431 41 20 41C31.0457 41 40 32.0457 40 21C40 19.1344 39.7446 17.3285 39.2668 15.6152Z" fill="#F9F9F9"/>
<g filter="url(#filter0_d_4581_4823)">
<circle cx="34" cy="6" r="4" fill="#F23636"/>
</g>
<path d="M22.4733 21.4733C23.1269 20.959 23.604 20.2539 23.8382 19.4559C24.0723 18.6579 24.0519 17.8068 23.7799 17.0209C23.5078 16.235 22.9975 15.5535 22.32 15.0712C21.6426 14.5888 20.8316 14.3296 20 14.3296C19.1684 14.3296 18.3574 14.5888 17.68 15.0712C17.0025 15.5535 16.4922 16.235 16.2201 17.0209C15.9481 17.8068 15.9277 18.6579 16.1618 19.4559C16.396 20.2539 16.8731 20.959 17.5267 21.4733C16.4067 21.9219 15.4295 22.6662 14.6993 23.6265C13.969 24.5869 13.513 25.7275 13.38 26.9266C13.3704 27.0141 13.3781 27.1027 13.4027 27.1873C13.4273 27.2719 13.4683 27.3508 13.5234 27.4195C13.6347 27.5582 13.7965 27.6471 13.9733 27.6666C14.1501 27.686 14.3274 27.6344 14.4662 27.5232C14.605 27.4119 14.6939 27.2501 14.7133 27.0733C14.8597 25.77 15.4811 24.5665 16.4588 23.6924C17.4365 22.8184 18.7019 22.3353 20.0133 22.3353C21.3247 22.3353 22.5902 22.8184 23.5679 23.6924C24.5455 24.5665 25.1669 25.77 25.3133 27.0733C25.3315 27.2371 25.4096 27.3884 25.5327 27.4979C25.6559 27.6075 25.8152 27.6676 25.98 27.6666H26.0533C26.2281 27.6465 26.3878 27.5581 26.4977 27.4208C26.6076 27.2834 26.6587 27.1082 26.64 26.9333C26.5063 25.7307 26.0479 24.5872 25.3139 23.6254C24.5799 22.6635 23.5979 21.9196 22.4733 21.4733ZM20 20.9999C19.4726 20.9999 18.957 20.8435 18.5185 20.5505C18.0799 20.2575 17.7382 19.841 17.5363 19.3537C17.3345 18.8665 17.2817 18.3303 17.3846 17.813C17.4875 17.2957 17.7414 16.8206 18.1144 16.4476C18.4873 16.0747 18.9625 15.8207 19.4798 15.7178C19.997 15.6149 20.5332 15.6677 21.0205 15.8696C21.5078 16.0714 21.9242 16.4132 22.2173 16.8517C22.5103 17.2903 22.6667 17.8058 22.6667 18.3333C22.6667 19.0405 22.3857 19.7188 21.8856 20.2189C21.3855 20.719 20.7072 20.9999 20 20.9999Z" fill="#14191F"/>
<defs>
<filter id="filter0_d_4581_4823" x="24" y="0" width="20" height="20" filterUnits="userSpaceOnUse" color-interpolation-filters="sRGB">
<feFlood flood-opacity="0" result="BackgroundImageFix"/>
<feColorMatrix in="SourceAlpha" type="matrix" values="0 0 0 0 0 0 0 0 0 0 0 0 0 0 0 0 0 0 127 0" result="hardAlpha"/>
<feOffset dy="4"/>
<feGaussianBlur stdDeviation="3"/>
<feComposite in2="hardAlpha" operator="out"/>
<feColorMatrix type="matrix" values="0 0 0 0 0.94902 0 0 0 0 0.211765 0 0 0 0 0.211765 0 0 0 0.38 0"/>
<feBlend mode="normal" in2="BackgroundImageFix" result="effect1_dropShadow_4581_4823"/>
<feBlend mode="normal" in="SourceGraphic" in2="effect1_dropShadow_4581_4823" result="shape"/>
</filter>
</defs>
</svg>
